<svg width="139" height="212" viewBox="0 0 139 212" fill="none" xmlns="http://www.w3.org/2000/svg">
<g id="Group 1165">
<rect id="Rectangle 527" y="74.5767" width="118.589" height="118.589" fill="#5E50A1"/>
<path id="Union" fill-rule="evenodd" clip-rule="evenodd" d="M67.8527 3.66771C68.8655 3.66771 69.6865 2.84666 69.6865 1.83385C69.6865 0.821045 68.8655 0 67.8527 0C66.8398 0 66.0188 0.821045 66.0188 1.83385C66.0188 2.84666 66.8398 3.66771 67.8527 3.66771ZM67.8527 38.7285C68.8655 38.7285 69.6865 37.9075 69.6865 36.8947C69.6865 35.8819 68.8655 35.0608 67.8527 35.0608C66.8398 35.0608 66.0188 35.8819 66.0188 36.8947C66.0188 37.9075 66.8398 38.7285 67.8527 38.7285ZM67.8527 108.85C68.8655 108.85 69.6865 108.029 69.6865 107.016C69.6865 106.004 68.8655 105.182 67.8527 105.182C66.8398 105.182 66.0188 106.004 66.0188 107.016C66.0188 108.029 66.8398 108.85 67.8527 108.85ZM69.6865 71.9555C69.6865 72.9683 68.8655 73.7894 67.8527 73.7894C66.8398 73.7894 66.0188 72.9683 66.0188 71.9555C66.0188 70.9427 66.8398 70.1217 67.8527 70.1217C68.8655 70.1217 69.6865 70.9427 69.6865 71.9555ZM69.6865 124.547C69.6865 125.56 68.8655 126.381 67.8527 126.381C66.8398 126.381 66.0188 125.56 66.0188 124.547C66.0188 123.534 66.8398 122.713 67.8527 122.713C68.8655 122.713 69.6865 123.534 69.6865 124.547ZM67.8527 56.259C68.8655 56.259 69.6865 55.4379 69.6865 54.4251C69.6865 53.4123 68.8655 52.5912 67.8527 52.5912C66.8398 52.5912 66.0188 53.4123 66.0188 54.4251C66.0188 55.4379 66.8398 56.259 67.8527 56.259ZM69.6865 89.4859C69.6865 90.4987 68.8655 91.3198 67.8527 91.3198C66.8398 91.3198 66.0188 90.4987 66.0188 89.4859C66.0188 88.4731 66.8398 87.6521 67.8527 87.6521C68.8655 87.6521 69.6865 88.4731 69.6865 89.4859ZM67.8527 21.1981C68.8655 21.1981 69.6865 20.3771 69.6865 19.3643C69.6865 18.3515 68.8655 17.5304 67.8527 17.5304C66.8398 17.5304 66.0188 18.3515 66.0188 19.3643C66.0188 20.3771 66.8398 21.1981 67.8527 21.1981ZM111.275 107.016C111.275 108.029 110.454 108.85 109.441 108.85C108.428 108.85 107.607 108.029 107.607 107.016C107.607 106.004 108.428 105.182 109.441 105.182C110.454 105.182 111.275 106.004 111.275 107.016ZM109.441 38.7285C110.454 38.7285 111.275 37.9075 111.275 36.8947C111.275 35.8819 110.454 35.0608 109.441 35.0608C108.428 35.0608 107.607 35.8819 107.607 36.8947C107.607 37.9075 108.428 38.7285 109.441 38.7285ZM111.275 71.9555C111.275 72.9683 110.454 73.7894 109.441 73.7894C108.428 73.7894 107.607 72.9683 107.607 71.9555C107.607 70.9427 108.428 70.1217 109.441 70.1217C110.454 70.1217 111.275 70.9427 111.275 71.9555ZM109.441 3.66771C110.454 3.66771 111.275 2.84666 111.275 1.83385C111.275 0.821045 110.454 0 109.441 0C108.428 0 107.607 0.821045 107.607 1.83385C107.607 2.84666 108.428 3.66771 109.441 3.66771ZM111.275 124.547C111.275 125.56 110.454 126.381 109.441 126.381C108.428 126.381 107.607 125.56 107.607 124.547C107.607 123.534 108.428 122.713 109.441 122.713C110.454 122.713 111.275 123.534 111.275 124.547ZM109.441 56.259C110.454 56.259 111.275 55.4379 111.275 54.4251C111.275 53.4123 110.454 52.5912 109.441 52.5912C108.428 52.5912 107.607 53.4123 107.607 54.4251C107.607 55.4379 108.428 56.259 109.441 56.259ZM111.275 89.4859C111.275 90.4987 110.454 91.3198 109.441 91.3198C108.428 91.3198 107.607 90.4987 107.607 89.4859C107.607 88.4731 108.428 87.6521 109.441 87.6521C110.454 87.6521 111.275 88.4731 111.275 89.4859ZM109.441 21.1981C110.454 21.1981 111.275 20.3771 111.275 19.3643C111.275 18.3515 110.454 17.5304 109.441 17.5304C108.428 17.5304 107.607 18.3515 107.607 19.3643C107.607 20.3771 108.428 21.1981 109.441 21.1981ZM83.5492 107.016C83.5492 108.029 82.7282 108.85 81.7154 108.85C80.7025 108.85 79.8815 108.029 79.8815 107.016C79.8815 106.004 80.7025 105.182 81.7154 105.182C82.7282 105.182 83.5492 106.004 83.5492 107.016ZM81.7154 38.7285C82.7282 38.7285 83.5492 37.9075 83.5492 36.8947C83.5492 35.8819 82.7282 35.0608 81.7154 35.0608C80.7025 35.0608 79.8815 35.8819 79.8815 36.8947C79.8815 37.9075 80.7025 38.7285 81.7154 38.7285ZM83.5492 71.9555C83.5492 72.9683 82.7282 73.7894 81.7154 73.7894C80.7025 73.7894 79.8815 72.9683 79.8815 71.9555C79.8815 70.9427 80.7025 70.1217 81.7154 70.1217C82.7282 70.1217 83.5492 70.9427 83.5492 71.9555ZM81.7154 3.66771C82.7282 3.66771 83.5492 2.84666 83.5492 1.83385C83.5492 0.821045 82.7282 0 81.7154 0C80.7025 0 79.8815 0.821045 79.8815 1.83385C79.8815 2.84666 80.7025 3.66771 81.7154 3.66771ZM83.5492 124.547C83.5492 125.56 82.7282 126.381 81.7154 126.381C80.7025 126.381 79.8815 125.56 79.8815 124.547C79.8815 123.534 80.7025 122.713 81.7154 122.713C82.7282 122.713 83.5492 123.534 83.5492 124.547ZM81.7154 56.259C82.7282 56.259 83.5492 55.4379 83.5492 54.4251C83.5492 53.4123 82.7282 52.5912 81.7154 52.5912C80.7025 52.5912 79.8815 53.4123 79.8815 54.4251C79.8815 55.4379 80.7025 56.259 81.7154 56.259ZM83.5492 89.4859C83.5492 90.4987 82.7282 91.3198 81.7154 91.3198C80.7025 91.3198 79.8815 90.4987 79.8815 89.4859C79.8815 88.4731 80.7025 87.6521 81.7154 87.6521C82.7282 87.6521 83.5492 88.4731 83.5492 89.4859ZM81.7154 21.1981C82.7282 21.1981 83.5492 20.3771 83.5492 19.3643C83.5492 18.3515 82.7282 17.5304 81.7154 17.5304C80.7025 17.5304 79.8815 18.3515 79.8815 19.3643C79.8815 20.3771 80.7025 21.1981 81.7154 21.1981ZM125.137 107.016C125.137 108.029 124.316 108.85 123.303 108.85C122.291 108.85 121.47 108.029 121.47 107.016C121.47 106.004 122.291 105.182 123.303 105.182C124.316 105.182 125.137 106.004 125.137 107.016ZM123.303 38.7285C124.316 38.7285 125.137 37.9075 125.137 36.8947C125.137 35.8819 124.316 35.0608 123.303 35.0608C122.291 35.0608 121.47 35.8819 121.47 36.8947C121.47 37.9075 122.291 38.7285 123.303 38.7285ZM125.137 71.9555C125.137 72.9683 124.316 73.7894 123.303 73.7894C122.291 73.7894 121.47 72.9683 121.47 71.9555C121.47 70.9427 122.291 70.1217 123.303 70.1217C124.316 70.1217 125.137 70.9427 125.137 71.9555ZM123.303 3.66771C124.316 3.66771 125.137 2.84666 125.137 1.83385C125.137 0.821045 124.316 0 123.303 0C122.291 0 121.47 0.821045 121.47 1.83385C121.47 2.84666 122.291 3.66771 123.303 3.66771ZM125.137 124.547C125.137 125.56 124.316 126.381 123.303 126.381C122.291 126.381 121.47 125.56 121.47 124.547C121.47 123.534 122.291 122.713 123.303 122.713C124.316 122.713 125.137 123.534 125.137 124.547ZM123.303 56.259C124.316 56.259 125.137 55.4379 125.137 54.4251C125.137 53.4123 124.316 52.5912 123.303 52.5912C122.291 52.5912 121.47 53.4123 121.47 54.4251C121.47 55.4379 122.291 56.259 123.303 56.259ZM125.137 89.4859C125.137 90.4987 124.316 91.3198 123.303 91.3198C122.291 91.3198 121.47 90.4987 121.47 89.4859C121.47 88.4731 122.291 87.6521 123.303 87.6521C124.316 87.6521 125.137 88.4731 125.137 89.4859ZM123.303 21.1981C124.316 21.1981 125.137 20.3771 125.137 19.3643C125.137 18.3515 124.316 17.5304 123.303 17.5304C122.291 17.5304 121.47 18.3515 121.47 19.3643C121.47 20.3771 122.291 21.1981 123.303 21.1981ZM97.4119 107.016C97.4119 108.029 96.5909 108.85 95.5781 108.85C94.5653 108.85 93.7442 108.029 93.7442 107.016C93.7442 106.004 94.5653 105.182 95.5781 105.182C96.5909 105.182 97.4119 106.004 97.4119 107.016ZM95.5781 38.7285C96.5909 38.7285 97.4119 37.9075 97.4119 36.8947C97.4119 35.8819 96.5909 35.0608 95.5781 35.0608C94.5653 35.0608 93.7442 35.8819 93.7442 36.8947C93.7442 37.9075 94.5653 38.7285 95.5781 38.7285ZM97.4119 71.9555C97.4119 72.9683 96.5909 73.7894 95.5781 73.7894C94.5653 73.7894 93.7442 72.9683 93.7442 71.9555C93.7442 70.9427 94.5653 70.1217 95.5781 70.1217C96.5909 70.1217 97.4119 70.9427 97.4119 71.9555ZM95.5781 3.66771C96.5909 3.66771 97.4119 2.84666 97.4119 1.83385C97.4119 0.821045 96.5909 0 95.5781 0C94.5653 0 93.7442 0.821045 93.7442 1.83385C93.7442 2.84666 94.5653 3.66771 95.5781 3.66771ZM97.4119 124.547C97.4119 125.56 96.5909 126.381 95.5781 126.381C94.5653 126.381 93.7442 125.56 93.7442 124.547C93.7442 123.534 94.5653 122.713 95.5781 122.713C96.5909 122.713 97.4119 123.534 97.4119 124.547ZM95.5781 56.259C96.5909 56.259 97.4119 55.4379 97.4119 54.4251C97.4119 53.4123 96.5909 52.5912 95.5781 52.5912C94.5653 52.5912 93.7442 53.4123 93.7442 54.4251C93.7442 55.4379 94.5653 56.259 95.5781 56.259ZM97.4119 89.4859C97.4119 90.4987 96.5909 91.3198 95.5781 91.3198C94.5653 91.3198 93.7442 90.4987 93.7442 89.4859C93.7442 88.4731 94.5653 87.6521 95.5781 87.6521C96.5909 87.6521 97.4119 88.4731 97.4119 89.4859ZM95.5781 21.1981C96.5909 21.1981 97.4119 20.3771 97.4119 19.3643C97.4119 18.3515 96.5909 17.5304 95.5781 17.5304C94.5653 17.5304 93.7442 18.3515 93.7442 19.3643C93.7442 20.3771 94.5653 21.1981 95.5781 21.1981ZM139 107.016C139 108.029 138.179 108.85 137.166 108.85C136.153 108.85 135.332 108.029 135.332 107.016C135.332 106.004 136.153 105.182 137.166 105.182C138.179 105.182 139 106.004 139 107.016ZM137.166 38.7285C138.179 38.7285 139 37.9075 139 36.8947C139 35.8819 138.179 35.0608 137.166 35.0608C136.153 35.0608 135.332 35.8819 135.332 36.8947C135.332 37.9075 136.153 38.7285 137.166 38.7285ZM139 71.9555C139 72.9683 138.179 73.7894 137.166 73.7894C136.153 73.7894 135.332 72.9683 135.332 71.9555C135.332 70.9427 136.153 70.1217 137.166 70.1217C138.179 70.1217 139 70.9427 139 71.9555ZM137.166 3.66771C138.179 3.66771 139 2.84666 139 1.83385C139 0.821045 138.179 0 137.166 0C136.153 0 135.332 0.821045 135.332 1.83385C135.332 2.84666 136.153 3.66771 137.166 3.66771ZM139 124.547C139 125.56 138.179 126.381 137.166 126.381C136.153 126.381 135.332 125.56 135.332 124.547C135.332 123.534 136.153 122.713 137.166 122.713C138.179 122.713 139 123.534 139 124.547ZM137.166 56.259C138.179 56.259 139 55.4379 139 54.4251C139 53.4123 138.179 52.5912 137.166 52.5912C136.153 52.5912 135.332 53.4123 135.332 54.4251C135.332 55.4379 136.153 56.259 137.166 56.259ZM139 89.4859C139 90.4987 138.179 91.3198 137.166 91.3198C136.153 91.3198 135.332 90.4987 135.332 89.4859C135.332 88.4731 136.153 87.6521 137.166 87.6521C138.179 87.6521 139 88.4731 139 89.4859ZM137.166 21.1981C138.179 21.1981 139 20.3771 139 19.3643C139 18.3515 138.179 17.5304 137.166 17.5304C136.153 17.5304 135.332 18.3515 135.332 19.3643C135.332 20.3771 136.153 21.1981 137.166 21.1981Z" fill="white"/>
<rect id="Rectangle 528" x="86" y="166" width="46" height="46" fill="#FBB017"/>
</g>
</svg>
